<svg width="21" height="21" viewBox="0 0 21 21" fill="none" xmlns="http://www.w3.org/2000/svg">
<path d="M15.8543 20.1354H5.14598C2.7814 20.1354 0.864746 18.2188 0.864746 15.8542V5.14585C0.864746 2.78127 2.7814 0.864598 5.14598 0.864598H15.8543C18.2189 0.864598 20.1356 2.78127 20.1356 5.14585V15.8542C20.1356 18.2188 18.2189 20.1354 15.8543 20.1354Z" stroke="white" stroke-width="1.5" stroke-linecap="round" stroke-linejoin="round"/>
<path d="M10.5 14.2188C12.5538 14.2188 14.2188 12.5539 14.2188 10.5001C14.2188 8.44626 12.5538 6.78132 10.5 6.78132C8.4462 6.78132 6.78125 8.44626 6.78125 10.5001C6.78125 12.5539 8.4462 14.2188 10.5 14.2188Z" stroke="white" stroke-width="1.5" stroke-linecap="round" stroke-linejoin="round"/>
<path d="M15.8649 6.25002C16.4575 6.25002 16.9378 5.76966 16.9378 5.1771C16.9378 4.58455 16.4575 4.10419 15.8649 4.10419C15.2724 4.10419 14.792 4.58455 14.792 5.1771C14.792 5.76966 15.2724 6.25002 15.8649 6.25002Z" fill="white"/>
</svg>
