<svg width="21" height="21" viewBox="0 0 21 21" fill="none" xmlns="http://www.w3.org/2000/svg">
<path d="M10.4373 20.0104C8.87483 20.0104 7.30192 19.5938 5.9165 18.8021L0.854004 20.125L2.17691 15.1875C1.33316 13.7396 0.916501 12.1146 0.916501 10.4271C0.916501 5.1875 5.18732 0.854178 10.4269 0.854178C13.0207 0.854178 15.4269 1.87501 17.229 3.68751C19.0311 5.4896 20.1144 7.90626 20.1144 10.4375C20.1352 15.7396 15.7394 20.0104 10.4373 20.0104Z" stroke="white" stroke-width="1.5" stroke-linecap="round" stroke-linejoin="round"/>
<path d="M14.5519 12.5104C14.0311 11.7813 13.7707 11.4063 13.354 11.3125C12.8644 11.2083 12.4269 11.4583 12.2394 11.5833C11.9478 11.5313 11.1665 11.3333 10.479 10.6563C9.79151 9.97918 9.59361 9.20835 9.53111 8.91668C9.62486 8.71876 9.85402 8.20835 9.67694 7.64585C9.54152 7.1771 9.17693 6.93752 8.47901 6.44794C8.31235 6.33335 8.12486 6.21877 7.88527 6.21877C7.61444 6.21877 7.41651 6.3646 7.32276 6.44794L6.51026 7.26043C5.69776 8.1146 6.59359 10.375 8.60401 12.3854C10.6144 14.3958 12.8749 15.3334 13.729 14.4792L14.5415 13.6667C14.6249 13.5729 14.7707 13.3542 14.7707 13.0729C14.7707 12.8334 14.6665 12.6563 14.5519 12.5104Z" stroke="white" stroke-width="1.5" stroke-linecap="round" stroke-linejoin="round"/>
</svg>
